<mxfile host="Electron" modified="2023-09-28T08:09:02.532Z" agent="Mozilla/5.0 (Windows NT 10.0; Win64; x64) AppleWebKit/537.36 (KHTML, like Gecko) draw.io/21.2.8 Chrome/112.0.5615.165 Electron/24.2.0 Safari/537.36" etag="pI4iimdLylMZt3KVYlVy" version="21.2.8" type="device">
  <diagram name="第 1 页" id="4IeF2RclDindrgjtWvE0">
    <mxGraphModel dx="2550" dy="1118" grid="1" gridSize="10" guides="1" tooltips="1" connect="1" arrows="1" fold="1" page="0" pageScale="1" pageWidth="3300" pageHeight="4681" math="0" shadow="0">
      <root>
        <mxCell id="0" />
        <mxCell id="1" parent="0" />
        <mxCell id="TwnfljfR6-aZlFBNW1U_-2" value="NAT&lt;br&gt;106.37.96.84" style="rounded=1;whiteSpace=wrap;html=1;fontSize=16;arcSize=3;verticalAlign=top;fillColor=#dae8fc;strokeColor=#6c8ebf;" vertex="1" parent="1">
          <mxGeometry y="20" width="440" height="380" as="geometry" />
        </mxCell>
        <mxCell id="TwnfljfR6-aZlFBNW1U_-5" value="局域网" style="rounded=1;whiteSpace=wrap;html=1;fontSize=16;arcSize=3;verticalAlign=top;fillColor=#fff2cc;strokeColor=#d6b656;" vertex="1" parent="1">
          <mxGeometry x="-440" y="20" width="360" height="380" as="geometry" />
        </mxCell>
        <mxCell id="TwnfljfR6-aZlFBNW1U_-6" value="互联网" style="rounded=1;whiteSpace=wrap;html=1;fontSize=16;arcSize=3;verticalAlign=top;fillColor=#d5e8d4;strokeColor=#82b366;" vertex="1" parent="1">
          <mxGeometry x="520" y="20" width="360" height="380" as="geometry" />
        </mxCell>
        <mxCell id="TwnfljfR6-aZlFBNW1U_-7" value="" style="shape=table;startSize=0;container=1;collapsible=0;childLayout=tableLayout;fontSize=16;" vertex="1" parent="1">
          <mxGeometry x="30" y="90" width="160" height="120" as="geometry" />
        </mxCell>
        <mxCell id="TwnfljfR6-aZlFBNW1U_-8" value="" style="shape=tableRow;horizontal=0;startSize=0;swimlaneHead=0;swimlaneBody=0;strokeColor=inherit;top=0;left=0;bottom=0;right=0;collapsible=0;dropTarget=0;fillColor=none;points=[[0,0.5],[1,0.5]];portConstraint=eastwest;fontSize=16;" vertex="1" parent="TwnfljfR6-aZlFBNW1U_-7">
          <mxGeometry width="160" height="40" as="geometry" />
        </mxCell>
        <mxCell id="TwnfljfR6-aZlFBNW1U_-20" value="request" style="shape=partialRectangle;html=1;whiteSpace=wrap;connectable=0;strokeColor=inherit;overflow=hidden;fillColor=none;top=0;left=0;bottom=0;right=0;pointerEvents=1;fontSize=16;" vertex="1" parent="TwnfljfR6-aZlFBNW1U_-8">
          <mxGeometry width="160" height="40" as="geometry">
            <mxRectangle width="160" height="40" as="alternateBounds" />
          </mxGeometry>
        </mxCell>
        <mxCell id="TwnfljfR6-aZlFBNW1U_-12" value="" style="shape=tableRow;horizontal=0;startSize=0;swimlaneHead=0;swimlaneBody=0;strokeColor=inherit;top=0;left=0;bottom=0;right=0;collapsible=0;dropTarget=0;fillColor=none;points=[[0,0.5],[1,0.5]];portConstraint=eastwest;fontSize=16;" vertex="1" parent="TwnfljfR6-aZlFBNW1U_-7">
          <mxGeometry y="40" width="160" height="40" as="geometry" />
        </mxCell>
        <mxCell id="TwnfljfR6-aZlFBNW1U_-21" value="src：192.168.10.101" style="shape=partialRectangle;html=1;whiteSpace=wrap;connectable=0;strokeColor=#b85450;overflow=hidden;fillColor=#f8cecc;top=0;left=0;bottom=0;right=0;pointerEvents=1;fontSize=16;" vertex="1" parent="TwnfljfR6-aZlFBNW1U_-12">
          <mxGeometry width="160" height="40" as="geometry">
            <mxRectangle width="160" height="40" as="alternateBounds" />
          </mxGeometry>
        </mxCell>
        <mxCell id="TwnfljfR6-aZlFBNW1U_-16" value="" style="shape=tableRow;horizontal=0;startSize=0;swimlaneHead=0;swimlaneBody=0;strokeColor=inherit;top=0;left=0;bottom=0;right=0;collapsible=0;dropTarget=0;fillColor=none;points=[[0,0.5],[1,0.5]];portConstraint=eastwest;fontSize=16;" vertex="1" parent="TwnfljfR6-aZlFBNW1U_-7">
          <mxGeometry y="80" width="160" height="40" as="geometry" />
        </mxCell>
        <mxCell id="TwnfljfR6-aZlFBNW1U_-22" value="dest：1.203.110.55" style="shape=partialRectangle;html=1;whiteSpace=wrap;connectable=0;strokeColor=inherit;overflow=hidden;fillColor=none;top=0;left=0;bottom=0;right=0;pointerEvents=1;fontSize=16;" vertex="1" parent="TwnfljfR6-aZlFBNW1U_-16">
          <mxGeometry width="160" height="40" as="geometry">
            <mxRectangle width="160" height="40" as="alternateBounds" />
          </mxGeometry>
        </mxCell>
        <mxCell id="TwnfljfR6-aZlFBNW1U_-24" style="edgeStyle=none;curved=1;rounded=0;orthogonalLoop=1;jettySize=auto;html=1;exitX=1;exitY=0.25;exitDx=0;exitDy=0;entryX=0;entryY=0.5;entryDx=0;entryDy=0;fontSize=12;startSize=8;endSize=8;" edge="1" parent="1" source="TwnfljfR6-aZlFBNW1U_-23" target="TwnfljfR6-aZlFBNW1U_-12">
          <mxGeometry relative="1" as="geometry" />
        </mxCell>
        <mxCell id="TwnfljfR6-aZlFBNW1U_-23" value="client-01&lt;br&gt;192.168.10.101" style="rounded=1;whiteSpace=wrap;html=1;fontSize=16;arcSize=4;" vertex="1" parent="1">
          <mxGeometry x="-340" y="163.75" width="160" height="112.5" as="geometry" />
        </mxCell>
        <mxCell id="TwnfljfR6-aZlFBNW1U_-34" style="edgeStyle=none;curved=1;rounded=0;orthogonalLoop=1;jettySize=auto;html=1;entryX=0;entryY=0.25;entryDx=0;entryDy=0;fontSize=12;startSize=8;endSize=8;" edge="1" parent="1" source="TwnfljfR6-aZlFBNW1U_-26" target="TwnfljfR6-aZlFBNW1U_-33">
          <mxGeometry relative="1" as="geometry" />
        </mxCell>
        <mxCell id="TwnfljfR6-aZlFBNW1U_-26" value="" style="shape=table;startSize=0;container=1;collapsible=0;childLayout=tableLayout;fontSize=16;" vertex="1" parent="1">
          <mxGeometry x="250" y="90" width="160" height="120" as="geometry" />
        </mxCell>
        <mxCell id="TwnfljfR6-aZlFBNW1U_-27" value="" style="shape=tableRow;horizontal=0;startSize=0;swimlaneHead=0;swimlaneBody=0;strokeColor=inherit;top=0;left=0;bottom=0;right=0;collapsible=0;dropTarget=0;fillColor=none;points=[[0,0.5],[1,0.5]];portConstraint=eastwest;fontSize=16;" vertex="1" parent="TwnfljfR6-aZlFBNW1U_-26">
          <mxGeometry width="160" height="40" as="geometry" />
        </mxCell>
        <mxCell id="TwnfljfR6-aZlFBNW1U_-28" value="request" style="shape=partialRectangle;html=1;whiteSpace=wrap;connectable=0;strokeColor=inherit;overflow=hidden;fillColor=none;top=0;left=0;bottom=0;right=0;pointerEvents=1;fontSize=16;" vertex="1" parent="TwnfljfR6-aZlFBNW1U_-27">
          <mxGeometry width="160" height="40" as="geometry">
            <mxRectangle width="160" height="40" as="alternateBounds" />
          </mxGeometry>
        </mxCell>
        <mxCell id="TwnfljfR6-aZlFBNW1U_-29" value="" style="shape=tableRow;horizontal=0;startSize=0;swimlaneHead=0;swimlaneBody=0;strokeColor=inherit;top=0;left=0;bottom=0;right=0;collapsible=0;dropTarget=0;fillColor=none;points=[[0,0.5],[1,0.5]];portConstraint=eastwest;fontSize=16;" vertex="1" parent="TwnfljfR6-aZlFBNW1U_-26">
          <mxGeometry y="40" width="160" height="40" as="geometry" />
        </mxCell>
        <mxCell id="TwnfljfR6-aZlFBNW1U_-30" value="src：106.37.96.84" style="shape=partialRectangle;html=1;whiteSpace=wrap;connectable=0;strokeColor=#b85450;overflow=hidden;fillColor=#f8cecc;top=0;left=0;bottom=0;right=0;pointerEvents=1;fontSize=16;" vertex="1" parent="TwnfljfR6-aZlFBNW1U_-29">
          <mxGeometry width="160" height="40" as="geometry">
            <mxRectangle width="160" height="40" as="alternateBounds" />
          </mxGeometry>
        </mxCell>
        <mxCell id="TwnfljfR6-aZlFBNW1U_-31" value="" style="shape=tableRow;horizontal=0;startSize=0;swimlaneHead=0;swimlaneBody=0;strokeColor=inherit;top=0;left=0;bottom=0;right=0;collapsible=0;dropTarget=0;fillColor=none;points=[[0,0.5],[1,0.5]];portConstraint=eastwest;fontSize=16;" vertex="1" parent="TwnfljfR6-aZlFBNW1U_-26">
          <mxGeometry y="80" width="160" height="40" as="geometry" />
        </mxCell>
        <mxCell id="TwnfljfR6-aZlFBNW1U_-32" value="dest：1.203.110.55" style="shape=partialRectangle;html=1;whiteSpace=wrap;connectable=0;strokeColor=inherit;overflow=hidden;fillColor=none;top=0;left=0;bottom=0;right=0;pointerEvents=1;fontSize=16;" vertex="1" parent="TwnfljfR6-aZlFBNW1U_-31">
          <mxGeometry width="160" height="40" as="geometry">
            <mxRectangle width="160" height="40" as="alternateBounds" />
          </mxGeometry>
        </mxCell>
        <mxCell id="TwnfljfR6-aZlFBNW1U_-42" style="edgeStyle=none;curved=1;rounded=0;orthogonalLoop=1;jettySize=auto;html=1;exitX=0;exitY=0.75;exitDx=0;exitDy=0;entryX=1;entryY=0.5;entryDx=0;entryDy=0;fontSize=12;startSize=8;endSize=8;" edge="1" parent="1" source="TwnfljfR6-aZlFBNW1U_-33" target="TwnfljfR6-aZlFBNW1U_-38">
          <mxGeometry relative="1" as="geometry" />
        </mxCell>
        <mxCell id="TwnfljfR6-aZlFBNW1U_-33" value="server&lt;br&gt;1.203.110.55" style="rounded=1;whiteSpace=wrap;html=1;fontSize=16;arcSize=4;" vertex="1" parent="1">
          <mxGeometry x="620" y="163.75" width="160" height="112.5" as="geometry" />
        </mxCell>
        <mxCell id="TwnfljfR6-aZlFBNW1U_-35" value="" style="shape=table;startSize=0;container=1;collapsible=0;childLayout=tableLayout;fontSize=16;" vertex="1" parent="1">
          <mxGeometry x="250" y="240" width="160" height="120" as="geometry" />
        </mxCell>
        <mxCell id="TwnfljfR6-aZlFBNW1U_-36" value="" style="shape=tableRow;horizontal=0;startSize=0;swimlaneHead=0;swimlaneBody=0;strokeColor=inherit;top=0;left=0;bottom=0;right=0;collapsible=0;dropTarget=0;fillColor=none;points=[[0,0.5],[1,0.5]];portConstraint=eastwest;fontSize=16;" vertex="1" parent="TwnfljfR6-aZlFBNW1U_-35">
          <mxGeometry width="160" height="40" as="geometry" />
        </mxCell>
        <mxCell id="TwnfljfR6-aZlFBNW1U_-37" value="response" style="shape=partialRectangle;html=1;whiteSpace=wrap;connectable=0;strokeColor=inherit;overflow=hidden;fillColor=none;top=0;left=0;bottom=0;right=0;pointerEvents=1;fontSize=16;" vertex="1" parent="TwnfljfR6-aZlFBNW1U_-36">
          <mxGeometry width="160" height="40" as="geometry">
            <mxRectangle width="160" height="40" as="alternateBounds" />
          </mxGeometry>
        </mxCell>
        <mxCell id="TwnfljfR6-aZlFBNW1U_-38" value="" style="shape=tableRow;horizontal=0;startSize=0;swimlaneHead=0;swimlaneBody=0;strokeColor=inherit;top=0;left=0;bottom=0;right=0;collapsible=0;dropTarget=0;fillColor=none;points=[[0,0.5],[1,0.5]];portConstraint=eastwest;fontSize=16;" vertex="1" parent="TwnfljfR6-aZlFBNW1U_-35">
          <mxGeometry y="40" width="160" height="40" as="geometry" />
        </mxCell>
        <mxCell id="TwnfljfR6-aZlFBNW1U_-39" value="src：1.203.110.55" style="shape=partialRectangle;html=1;whiteSpace=wrap;connectable=0;strokeColor=inherit;overflow=hidden;fillColor=none;top=0;left=0;bottom=0;right=0;pointerEvents=1;fontSize=16;" vertex="1" parent="TwnfljfR6-aZlFBNW1U_-38">
          <mxGeometry width="160" height="40" as="geometry">
            <mxRectangle width="160" height="40" as="alternateBounds" />
          </mxGeometry>
        </mxCell>
        <mxCell id="TwnfljfR6-aZlFBNW1U_-40" value="" style="shape=tableRow;horizontal=0;startSize=0;swimlaneHead=0;swimlaneBody=0;strokeColor=inherit;top=0;left=0;bottom=0;right=0;collapsible=0;dropTarget=0;fillColor=none;points=[[0,0.5],[1,0.5]];portConstraint=eastwest;fontSize=16;" vertex="1" parent="TwnfljfR6-aZlFBNW1U_-35">
          <mxGeometry y="80" width="160" height="40" as="geometry" />
        </mxCell>
        <mxCell id="TwnfljfR6-aZlFBNW1U_-41" value="dest：106.37.96.84" style="shape=partialRectangle;html=1;whiteSpace=wrap;connectable=0;strokeColor=#82b366;overflow=hidden;fillColor=#d5e8d4;top=0;left=0;bottom=0;right=0;pointerEvents=1;fontSize=16;" vertex="1" parent="TwnfljfR6-aZlFBNW1U_-40">
          <mxGeometry width="160" height="40" as="geometry">
            <mxRectangle width="160" height="40" as="alternateBounds" />
          </mxGeometry>
        </mxCell>
        <mxCell id="TwnfljfR6-aZlFBNW1U_-50" value="" style="shape=table;startSize=0;container=1;collapsible=0;childLayout=tableLayout;fontSize=16;" vertex="1" parent="1">
          <mxGeometry x="30" y="240" width="160" height="120" as="geometry" />
        </mxCell>
        <mxCell id="TwnfljfR6-aZlFBNW1U_-51" value="" style="shape=tableRow;horizontal=0;startSize=0;swimlaneHead=0;swimlaneBody=0;strokeColor=inherit;top=0;left=0;bottom=0;right=0;collapsible=0;dropTarget=0;fillColor=none;points=[[0,0.5],[1,0.5]];portConstraint=eastwest;fontSize=16;" vertex="1" parent="TwnfljfR6-aZlFBNW1U_-50">
          <mxGeometry width="160" height="40" as="geometry" />
        </mxCell>
        <mxCell id="TwnfljfR6-aZlFBNW1U_-52" value="response" style="shape=partialRectangle;html=1;whiteSpace=wrap;connectable=0;strokeColor=inherit;overflow=hidden;fillColor=none;top=0;left=0;bottom=0;right=0;pointerEvents=1;fontSize=16;" vertex="1" parent="TwnfljfR6-aZlFBNW1U_-51">
          <mxGeometry width="160" height="40" as="geometry">
            <mxRectangle width="160" height="40" as="alternateBounds" />
          </mxGeometry>
        </mxCell>
        <mxCell id="TwnfljfR6-aZlFBNW1U_-53" value="" style="shape=tableRow;horizontal=0;startSize=0;swimlaneHead=0;swimlaneBody=0;strokeColor=inherit;top=0;left=0;bottom=0;right=0;collapsible=0;dropTarget=0;fillColor=none;points=[[0,0.5],[1,0.5]];portConstraint=eastwest;fontSize=16;" vertex="1" parent="TwnfljfR6-aZlFBNW1U_-50">
          <mxGeometry y="40" width="160" height="40" as="geometry" />
        </mxCell>
        <mxCell id="TwnfljfR6-aZlFBNW1U_-54" value="src：1.203.110.55" style="shape=partialRectangle;html=1;whiteSpace=wrap;connectable=0;strokeColor=inherit;overflow=hidden;fillColor=none;top=0;left=0;bottom=0;right=0;pointerEvents=1;fontSize=16;" vertex="1" parent="TwnfljfR6-aZlFBNW1U_-53">
          <mxGeometry width="160" height="40" as="geometry">
            <mxRectangle width="160" height="40" as="alternateBounds" />
          </mxGeometry>
        </mxCell>
        <mxCell id="TwnfljfR6-aZlFBNW1U_-55" value="" style="shape=tableRow;horizontal=0;startSize=0;swimlaneHead=0;swimlaneBody=0;strokeColor=inherit;top=0;left=0;bottom=0;right=0;collapsible=0;dropTarget=0;fillColor=none;points=[[0,0.5],[1,0.5]];portConstraint=eastwest;fontSize=16;" vertex="1" parent="TwnfljfR6-aZlFBNW1U_-50">
          <mxGeometry y="80" width="160" height="40" as="geometry" />
        </mxCell>
        <mxCell id="TwnfljfR6-aZlFBNW1U_-56" value="dest：192.168.10.101" style="shape=partialRectangle;html=1;whiteSpace=wrap;connectable=0;strokeColor=#82b366;overflow=hidden;fillColor=#d5e8d4;top=0;left=0;bottom=0;right=0;pointerEvents=1;fontSize=16;" vertex="1" parent="TwnfljfR6-aZlFBNW1U_-55">
          <mxGeometry width="160" height="40" as="geometry">
            <mxRectangle width="160" height="40" as="alternateBounds" />
          </mxGeometry>
        </mxCell>
        <mxCell id="TwnfljfR6-aZlFBNW1U_-57" style="edgeStyle=none;curved=1;rounded=0;orthogonalLoop=1;jettySize=auto;html=1;exitX=0;exitY=0.5;exitDx=0;exitDy=0;entryX=1;entryY=0.75;entryDx=0;entryDy=0;fontSize=12;startSize=8;endSize=8;" edge="1" parent="1" source="TwnfljfR6-aZlFBNW1U_-53" target="TwnfljfR6-aZlFBNW1U_-23">
          <mxGeometry relative="1" as="geometry" />
        </mxCell>
        <mxCell id="TwnfljfR6-aZlFBNW1U_-58" style="edgeStyle=none;curved=1;rounded=0;orthogonalLoop=1;jettySize=auto;html=1;exitX=1;exitY=0.5;exitDx=0;exitDy=0;entryX=0;entryY=0.5;entryDx=0;entryDy=0;fontSize=12;startSize=8;endSize=8;" edge="1" parent="1" source="TwnfljfR6-aZlFBNW1U_-12" target="TwnfljfR6-aZlFBNW1U_-29">
          <mxGeometry relative="1" as="geometry" />
        </mxCell>
        <mxCell id="TwnfljfR6-aZlFBNW1U_-59" style="edgeStyle=none;curved=1;rounded=0;orthogonalLoop=1;jettySize=auto;html=1;exitX=0;exitY=0.5;exitDx=0;exitDy=0;entryX=1;entryY=0.5;entryDx=0;entryDy=0;fontSize=12;startSize=8;endSize=8;" edge="1" parent="1" source="TwnfljfR6-aZlFBNW1U_-38" target="TwnfljfR6-aZlFBNW1U_-53">
          <mxGeometry relative="1" as="geometry" />
        </mxCell>
      </root>
    </mxGraphModel>
  </diagram>
</mxfile>
